# xmcd
#
# Track frame offsets:
#	150
#	17145
#	35827
#	49812
#	68860
#	87425
#	106307
#	122012
#	136310
#
# Disc length: 2069 seconds
#
# Revision: 0
# Processed by: cddbd v1.5.2PL0 Copyright (c) Steve Scherf et al.
# Submitted via: audiograbber 1.83.01
#
DISCID=7c081309
DTITLE=Oslin, K.T. - 80's ladies
DYEAR=1987
DGENRE=Country
TTITLE0=Wall of tears
TTITLE1=I'll always come back
TTITLE2=Younger men
TTITLE3=80's ladies
TTITLE4=Do ya'
TTITLE5=Two hearts
TTITLE6=Dr., Dr.
TTITLE7=Lonely but only for you
TTITLE8=Old pictures
EXTD=
EXTT0=
EXTT1=
EXTT2=
EXTT3=
EXTT4=
EXTT5=
EXTT6=
EXTT7=
EXTT8=
PLAYORDER=
